<svg width="183" height="24" viewBox="0 0 183 24" fill="none" xmlns="http://www.w3.org/2000/svg">
<g clip-path="url(#clip0_12_67)">
<path d="M165.884 18.528C165.023 18.528 163.946 18.144 163.946 16.128C163.946 14.112 164.915 13.728 165.884 13.728H177.079V18.432L165.884 18.528ZM174.496 0.191986H159.641V5.18399H174.173C176.326 5.18399 177.187 6.04799 177.187 8.25599V9.02399H165.131C160.502 9.02399 158.241 11.04 158.241 15.744V16.8C158.241 21.6 160.609 23.52 165.346 23.52H183V8.25599C182.892 2.39999 180.847 0.191986 174.496 0.191986Z" fill="#0059BC"/>
<path d="M134.882 0.191986V5.18399H143.278V23.52H149.199V5.18399H157.595V0.191986H134.882Z" fill="#0059BC"/>
<path d="M116.689 18.528C115.828 18.528 114.752 18.144 114.752 16.128C114.752 14.112 115.721 13.728 116.689 13.728H127.885V18.432L116.689 18.528ZM125.301 0.191986H110.446V5.18399H124.978C127.131 5.18399 127.992 6.04799 127.992 8.25599C127.992 8.25599 127.992 8.92799 127.992 9.02399H115.936C111.307 9.02399 109.046 11.04 109.046 15.744V16.8C109.046 21.6 111.415 23.52 116.151 23.52H133.805V8.25599C133.805 2.39999 131.545 0.191986 125.301 0.191986Z" fill="#0059BC"/>
<path d="M97.9588 0.191986H82.1347V23.424H98.2818C104.633 23.52 106.678 20.64 106.678 15.264V8.44799C106.678 2.30399 103.987 0.191986 97.9588 0.191986ZM100.65 15.456C100.65 17.664 99.7888 18.528 97.6359 18.528H88.0553V5.27999H97.6359C99.7888 5.27999 100.65 6.14399 100.65 8.35199V15.456Z" fill="#0059BC"/>
<path d="M52.3165 0.191986V5.18399H60.7129V23.52H66.6335V5.18399H75.03V0.191986H52.3165Z" fill="#0059BC"/>
<path d="M27.7729 0.191986V5.18399H36.1694V23.52H42.09V5.18399H50.4865V0.191986H27.7729Z" fill="#0059BC"/>
<path d="M19.3765 17.952C19.2688 17.76 11.3029 3.936 10.3341 2.688C9.25765 1.056 7.96588 0 5.27471 0C2.90647 0 0 0.96 0 6.144V23.52H5.92059V9.024C5.92059 7.968 5.81294 6.432 5.81294 6.144C5.81294 5.952 5.81294 5.664 5.92059 5.568C6.13588 5.472 6.24353 5.664 6.35118 5.76C6.45882 5.856 13.8865 18.912 15.3935 21.024C16.47 22.56 17.8694 23.712 20.4529 23.712C22.8212 23.712 25.7276 22.752 25.7276 17.568V0.192H19.8071V14.688C19.8071 15.744 19.9147 17.28 19.9147 17.568C19.9147 17.76 19.9147 18.048 19.8071 18.144C19.6994 18.336 19.5918 18.144 19.3765 17.952Z" fill="#0059BC"/>
</g>
<defs>
<clipPath id="clip0_12_67">
<rect width="183" height="24" fill="white"/>
</clipPath>
</defs>
</svg>
