<svg width="14" height="13" viewBox="0 0 14 13" fill="none" xmlns="http://www.w3.org/2000/svg">
<path d="M6.99999 12.2333L6.03333 11.3667C4.91111 10.3556 3.98333 9.48333 3.24999 8.75C2.51666 8.01667 1.93333 7.35822 1.49999 6.77467C1.06666 6.19156 0.763995 5.65556 0.591995 5.16667C0.41955 4.67778 0.333328 4.17778 0.333328 3.66667C0.333328 2.62222 0.683328 1.75 1.38333 1.05C2.08333 0.35 2.95555 0 3.99999 0C4.57777 0 5.12777 0.122222 5.64999 0.366667C6.17222 0.611111 6.62222 0.955555 6.99999 1.4C7.37777 0.955555 7.82777 0.611111 8.34999 0.366667C8.87222 0.122222 9.42222 0 9.99999 0C11.0444 0 11.9167 0.35 12.6167 1.05C13.3167 1.75 13.6667 2.62222 13.6667 3.66667C13.6667 4.17778 13.5807 4.67778 13.4087 5.16667C13.2362 5.65556 12.9333 6.19156 12.5 6.77467C12.0667 7.35822 11.4833 8.01667 10.75 8.75C10.0167 9.48333 9.08888 10.3556 7.96666 11.3667L6.99999 12.2333ZM6.99999 10.4333C8.06666 9.47778 8.94444 8.65822 9.63333 7.97467C10.3222 7.29156 10.8667 6.69733 11.2667 6.192C11.6667 5.68622 11.9444 5.236 12.1 4.84133C12.2555 4.44711 12.3333 4.05556 12.3333 3.66667C12.3333 3 12.1111 2.44444 11.6667 2C11.2222 1.55556 10.6667 1.33333 9.99999 1.33333C9.47777 1.33333 8.99444 1.48044 8.54999 1.77467C8.10555 2.06933 7.79999 2.44444 7.63333 2.9H6.36666C6.19999 2.44444 5.89444 2.06933 5.44999 1.77467C5.00555 1.48044 4.52222 1.33333 3.99999 1.33333C3.33333 1.33333 2.77777 1.55556 2.33333 2C1.88888 2.44444 1.66666 3 1.66666 3.66667C1.66666 4.05556 1.74444 4.44711 1.89999 4.84133C2.05555 5.236 2.33333 5.68622 2.73333 6.192C3.13333 6.69733 3.67777 7.29156 4.36666 7.97467C5.05555 8.65822 5.93333 9.47778 6.99999 10.4333Z" fill="#D1D1D1"/>
</svg>
